<?xml version="1.0" standalone="no"?>
<!DOCTYPE svg PUBLIC "-//W3C//DTD SVG 20010904//EN"
 "http://www.w3.org/TR/2001/REC-SVG-20010904/DTD/svg10.dtd">
<svg version="1.0" xmlns="http://www.w3.org/2000/svg"
 width="1600.000000pt" height="1600.000000pt" viewBox="0 0 1600.000000 1600.000000"
 preserveAspectRatio="xMidYMid meet">
<metadata>
Created by potrace 1.14, written by Peter Selinger 2001-2017
</metadata>
<g transform="translate(0.000000,1600.000000) scale(0.100000,-0.100000)"
fill="#000000" stroke="none">
<path d="M4855 12952 c4 -9 21 -60 40 -112 43 -124 162 -455 232 -645 31 -82
59 -161 63 -175 5 -14 19 -54 33 -90 13 -36 43 -117 66 -180 23 -63 46 -124
51 -135 7 -18 39 -103 90 -240 28 -74 188 -500 214 -570 13 -33 37 -96 53
-140 17 -44 50 -129 72 -190 23 -60 50 -130 61 -155 10 -25 28 -72 40 -105 12
-33 26 -69 31 -80 4 -11 31 -81 59 -155 28 -74 54 -144 59 -155 5 -11 37 -92
71 -180 161 -416 365 -933 632 -1600 100 -247 189 -472 200 -500 11 -27 26
-63 33 -80 7 -16 52 -127 100 -245 47 -118 97 -239 111 -268 13 -29 24 -55 24
-57 0 -7 375 -911 415 -1000 7 -16 29 -69 49 -118 20 -48 45 -106 55 -130 11
-23 32 -71 46 -107 121 -293 580 -1338 798 -1815 93 -206 148 -322 312 -670
101 -213 399 -805 482 -955 153 -275 305 -523 367 -597 l25 -30 193 48 c106
27 202 51 213 53 11 3 74 19 140 36 123 32 142 37 173 44 49 12 558 154 772
216 135 39 252 73 260 75 23 6 236 71 415 126 185 58 781 257 965 322 294 105
808 303 974 376 23 10 95 42 161 71 263 114 295 129 565 264 382 192 658 357
905 541 130 97 154 117 242 196 l42 38 -47 53 c-26 29 -49 55 -52 58 -3 3 -37
46 -76 95 -561 716 -1067 1717 -1642 3250 -215 574 -367 1013 -822 2375 -293
880 -531 1575 -571 1670 -6 14 -26 68 -45 120 -19 52 -38 104 -43 115 -5 11
-33 81 -62 155 -200 516 -389 904 -555 1137 l-45 62 -52 -21 c-54 -22 -277
-95 -312 -103 -11 -2 -83 -20 -160 -39 -77 -19 -151 -37 -165 -40 -237 -48
-485 -95 -520 -99 -39 -5 -120 -17 -270 -41 -19 -4 -71 -11 -115 -17 -44 -5
-91 -12 -105 -14 -28 -4 -122 -16 -160 -20 -103 -11 -149 -16 -171 -19 -13 -3
-60 -7 -104 -11 -44 -4 -93 -8 -110 -11 -46 -6 -377 -32 -500 -40 -60 -3 -132
-7 -160 -9 -377 -25 -1202 -25 -1635 0 -219 12 -722 61 -815 79 -11 2 -42 7
-70 10 -82 12 -96 14 -195 30 -458 77 -876 187 -1228 325 -83 32 -102 37 -97
23z"/>
<path d="M4174 12863 c-62 -100 -72 -118 -186 -328 -97 -178 -309 -603 -448
-900 -21 -44 -57 -120 -80 -170 -23 -49 -106 -229 -185 -400 -79 -170 -162
-350 -184 -398 -23 -49 -41 -90 -41 -92 0 -2 -18 -41 -39 -87 -88 -189 -121
-260 -121 -265 0 -3 -18 -43 -40 -89 -22 -46 -40 -86 -40 -88 0 -3 -22 -53
-50 -111 -27 -58 -50 -108 -50 -110 0 -2 -16 -39 -36 -82 -20 -43 -75 -163
-121 -268 -47 -104 -103 -228 -125 -275 -22 -47 -44 -94 -48 -105 -11 -30
-295 -656 -341 -753 -21 -46 -39 -85 -39 -87 0 -2 -17 -41 -39 -87 -37 -80
-61 -132 -250 -540 -90 -196 -165 -356 -211 -453 -29 -60 -72 -150 -95 -200
-305 -646 -629 -1283 -863 -1695 -57 -102 -120 -209 -138 -238 -19 -29 -34
-54 -34 -57 0 -6 -205 -309 -228 -336 -110 -131 -134 -161 -130 -165 3 -2 131
-43 284 -90 153 -47 329 -100 389 -119 457 -141 646 -200 685 -211 53 -15 620
-191 907 -282 62 -19 62 -19 95 0 73 45 157 169 268 393 72 147 230 517 267
625 8 25 21 59 28 75 7 17 34 89 60 160 26 72 50 139 55 150 40 93 322 942
447 1345 102 329 248 814 339 1128 43 149 81 272 85 272 5 0 30 -98 46 -180 1
-8 68 -276 147 -595 152 -606 218 -862 346 -1340 12 -44 23 -87 25 -95 20 -85
241 -858 322 -1125 42 -137 84 -277 94 -310 28 -98 173 -529 229 -685 190
-526 364 -874 475 -948 26 -17 397 -142 1770 -598 127 -41 237 -77 245 -79 8
-2 107 -35 220 -73 447 -152 1272 -423 1276 -419 2 2 -8 19 -22 38 -14 19 -60
90 -103 159 -73 118 -96 157 -172 298 -17 31 -46 84 -64 117 -35 64 -318 631
-377 755 -88 184 -132 278 -223 475 -53 116 -109 237 -125 270 -15 33 -38 83
-50 110 -12 28 -34 75 -47 105 -14 30 -33 73 -43 95 -10 22 -29 65 -43 95 -13
30 -84 190 -157 355 -140 318 -141 320 -215 490 -86 197 -117 269 -142 325
-14 30 -31 71 -38 90 -7 19 -24 60 -38 90 -14 30 -89 206 -167 390 -78 184
-166 391 -195 460 -80 188 -460 1104 -565 1360 -51 124 -98 239 -105 255 -7
17 -27 66 -45 110 -17 44 -37 94 -45 110 -7 17 -41 100 -75 185 -34 85 -68
169 -75 185 -13 30 -91 223 -226 565 -39 96 -76 189 -83 205 -7 17 -68 170
-136 340 -67 171 -128 324 -135 340 -19 43 -374 957 -430 1105 -26 69 -51 134
-56 145 -5 11 -54 139 -109 285 -55 146 -107 281 -114 300 -8 19 -39 103 -69
185 -31 83 -71 193 -90 245 -82 220 -189 526 -239 677 -29 90 -55 163 -58 163
-3 0 -33 -44 -66 -97z"/>
</g>
</svg>
